<svg xmlns="http://www.w3.org/2000/svg" width="73" height="73" viewBox="0 0 73 73">
    <defs>
        <linearGradient id="a" x1="0%" x2="99.492%" y1="45%" y2="45%">
            <stop offset="0%" stop-color="#FF1069"/>
            <stop offset="100%" stop-color="#FF493D"/>
        </linearGradient>
    </defs>
    <g fill="none" fill-rule="evenodd">
        <path fill="url(#a)" d="M20.743 1.266C25.37.422 30.38 0 35.771 0c5.946 0 11.55.513 16.813 1.538a24 24 0 0 1 18.978 19.03C72.52 25.557 73 30.87 73 36.5c0 5.672-.486 11.02-1.46 16.042a24 24 0 0 1-18.998 18.999C47.52 72.514 42.172 73 36.5 73c-5.672 0-11.02-.486-16.042-1.46A24 24 0 0 1 1.459 52.543C.486 47.52 0 42.172 0 36.5c0-5.754.5-11.173 1.502-16.26A24 24 0 0 1 20.743 1.266z"/>
        <g fill="#FFF">
            <path d="M22.114 52.77l.254-4.405h5.442v1.723h-3.772l-.101 1.545c.354-.089.67-.153 1.164-.153 1.747 0 3.101.843 3.101 2.873 0 1.903-1.329 3.103-3.366 3.103-1.418 0-2.456-.51-3.316-1.34l1.177-1.418c.67.613 1.329.97 2.113.97.911 0 1.481-.446 1.481-1.25 0-.78-.62-1.227-1.57-1.227-.556 0-1.063.154-1.48.332l-1.127-.753zm14.854.051c0 2.605-1.582 4.635-3.948 4.635-2.367 0-3.924-2.005-3.924-4.61 0-2.604 1.582-4.635 3.949-4.635s3.923 2.005 3.923 4.61zm-2 .026c0-1.635-.771-2.86-1.948-2.86-1.178 0-1.924 1.187-1.924 2.834s.772 2.86 1.949 2.86 1.924-1.2 1.924-2.834zm5.451-.132c0 .865-.592 1.558-1.467 1.558-.867 0-1.45-.684-1.45-1.54 0-.867.592-1.56 1.467-1.56.867 0 1.45.685 1.45 1.542zm3.09-1.472l-4.386 6.06h-1.02l4.384-6.06h1.021zm.6 4.571c0 .866-.592 1.558-1.468 1.558-.866 0-1.45-.684-1.45-1.54 0-.866.592-1.559 1.468-1.559.866 0 1.45.684 1.45 1.541zm-4.59-3.082c0-.415-.224-.77-.567-.77-.36 0-.55.346-.55.753 0 .415.224.77.567.77.36 0 .55-.346.55-.753zm3.689 3.1c0-.416-.223-.771-.567-.771-.36 0-.549.346-.549.753 0 .415.223.77.567.77.36 0 .549-.346.549-.753zM53.136 53.313h-1.45v-1.077h-6.649v-1.291h6.65v-1.442h-6.65V48.21h8.099v5.102zm.458.506v1.323h-3.74v2.314h-1.536v-2.314h-3.739V53.82h9.015zm9.45 2.227v1.26h-8.197v-2.454h1.45v1.194h6.747zm-.098-7.835v1.184h-8.099v-1.184h8.099zm-5.276 2.906h2.17l.359-1.377h1.482c-.109.462-.228.904-.348 1.377h1.71v1.13H59.59v.85h3.815v1.227h-9.015v-1.227h3.75v-.85h-3.39v-1.13h1.472V49.74h1.45v1.377z"/>
            <path fill-opacity=".98" d="M21.52 18.38c-.847.86-1.727 1.887-2.643 3.078.916 1.19 1.796 2.217 2.643 3.078-2.213 2.253-4.189 3.38-5.928 3.38-3.606 0-6.53-2.892-6.53-6.458 0-3.567 2.924-6.458 6.53-6.458 1.739 0 3.715 1.126 5.928 3.38zm-6.07 5.357c.96 0 2.103-.76 3.427-2.28-1.324-1.519-2.466-2.278-3.428-2.278-1.442 0-2.612 1.02-2.612 2.279s1.17 2.279 2.612 2.279z"/>
            <path fill-opacity=".8" d="M21.52 24.536c.846-.861 1.727-1.887 2.642-3.078-.915-1.191-1.796-2.217-2.642-3.079C23.732 16.126 25.708 15 27.447 15c3.606 0 6.53 2.891 6.53 6.458 0 3.566-2.924 6.458-6.53 6.458-1.739 0-3.715-1.127-5.927-3.38zm6.07-5.357c-.962 0-2.104.76-3.428 2.279 1.324 1.52 2.466 2.279 3.428 2.279 1.443 0 2.612-1.02 2.612-2.28 0-1.258-1.17-2.278-2.612-2.278z"/>
            <path fill-opacity=".93" d="M21.52 18.38c.846.86 1.727 1.887 2.642 3.078-.915 1.19-1.796 2.217-2.642 3.078-.847-.861-1.727-1.887-2.643-3.078.916-1.191 1.796-2.217 2.643-3.079z"/>
            <path d="M14.757 52.407v-2.098h-1.424v2.098h-2.135v1.398h2.135v2.097h1.424v-2.097h2.136v-1.398h-2.136zM14.045 58c-2.752 0-4.983-2.191-4.983-4.894 0-2.703 2.231-4.895 4.983-4.895s4.983 2.192 4.983 4.895c0 2.703-2.23 4.894-4.983 4.894zM38.165 25.626H36.43v-7.79h-.987v-1.49h2.723v9.28zm8.42-9.511v5.787h-5.932v-5.787h5.932zm-4.262 4.444h2.592v-3.077h-2.592v3.077zm8.156 4.395v1.478h-9.576v-3.468h1.736v1.99h7.84zm1.236-6.116v1.538h-1.473v3.382h-1.75v-7.814h1.75v2.894h1.473zm9.241 4.663h-2.604v-1.245h2.604v-6.312h1.736v8.18h-1.736v-.623zm1.986 1.49v1.44h-9.707v-2.868h1.75v1.428h7.957zm-6.182-4.97h-1.355c-1.67 0-2.657-.793-2.657-2.038 0-1.233.987-2.04 2.657-2.04h1.355c1.67 0 2.657.807 2.657 2.04 0 1.245-.986 2.039-2.657 2.039zm-1.355-1.281h1.355c.579 0 .987-.269.987-.757 0-.489-.408-.745-.987-.745h-1.355c-.591 0-.986.256-.986.745 0 .488.395.757.986.757zm4.551 1.758v1.294h-3.55v1.55h-1.75v-1.55h-2.223v-1.294h7.523z"/>
            <path fill-rule="nonzero" d="M9 37.538h12.878v1.682H9v-1.682zm12.224 7.05h-2.071v-2.615H9.654v-1.682h11.57v4.298zm0-13.137v1.667h-4.33a7.97 7.97 0 0 1-.544.719c1.464.84 3.426 1.36 5.388 1.514l-.795 1.514c-1.993-.184-4.266-.841-5.855-1.85-1.448 1.116-3.285 1.85-5.045 2.033l-.887-1.483c2.102-.23 4.033-1.117 5.356-2.447H9.654V31.45h11.57zm3.472 12.602l-1.9-.887c1.994-3.517 2.616-7.616 2.616-11.792h2.071c0 1.453-.077 2.952-.264 4.45.685 2.479 2.117 5.079 3.97 6.822l-1.557 1.3c-1.261-1.223-2.32-2.875-3.083-4.573-.436 1.652-1.043 3.243-1.853 4.68zM35.16 31.236v13.215h-2.055V31.236h2.055zm14.015 11.731v1.484H37.839v-3.64h8.984v-.688H37.84v-1.484h11.055v3.64h-9v.688h9.28zm-7.444-4.833h-1.214c-1.713 0-2.896-.84-2.896-2.233 0-1.391 1.183-2.233 2.896-2.233h1.214c1.729 0 2.912.842 2.912 2.233 0 1.392-1.183 2.233-2.912 2.233zm8.907-4.435v1.912h-1.744v2.493h-2.07v-6.868h2.07V33.7h1.744zm-5.403-1.958v1.545h-8.128V31.74h2.958v-1.01h2.071v1.01h3.1zm-4.718 4.925h1.059c.7 0 1.09-.26 1.09-.765 0-.428-.327-.78-.935-.78h-1.074c-.7 0-1.059.276-1.059.78 0 .444.312.765.919.765zM53.239 34.8v.566c0 1.04.685 1.85 1.76 1.85 1.058 0 1.759-.81 1.759-1.85V34.8c0-1.055-.7-1.85-1.76-1.85-1.074 0-1.76.795-1.76 1.85zm-2.04.566V34.8c0-2.065 1.588-3.564 3.8-3.564 2.21 0 3.799 1.5 3.799 3.564v.566c0 2.05-1.588 3.564-3.8 3.564-2.21 0-3.799-1.515-3.799-3.564zm12.208 7.158v1.85H51.993v-4.343h2.071v2.493h9.343zm-.218-11.288v9.79h-2.055v-9.79h2.055z"/>
        </g>
    </g>
</svg>
