<svg xmlns="http://www.w3.org/2000/svg" width="73" height="73" viewBox="0 0 73 73">
    <path fill="#FFF" fill-rule="nonzero" d="M32.162 29.059h-4.641c-2.227 0-3.995-1.02-3.995-3.009 0-2.006 1.768-2.992 3.995-2.992h4.641c2.244 0 3.995.986 3.995 2.992 0 1.989-1.751 3.009-3.995 3.009zm-4.641-1.938h4.284c1.19 0 1.904-.289 1.904-1.071 0-.765-.714-1.054-1.904-1.054h-3.944c-1.19 0-1.904.306-1.904 1.054 0 .629.527 1.071 1.564 1.071zm9.35 4.352v2.074H22.812v-2.074h5.814v-1.921h2.38v1.921h5.865zm-.561-9.282H23.373v-1.972h5.168v-1.36h2.431v1.36h5.338v1.972zm15.885 10.217v1.7H39.649v-4.216h9.979v-.833h-9.979v-1.683h12.223v4.199H41.91v.833h10.285zm-7.021-7.531v1.7h-6.001v-6.919H44.8v1.683h-3.502v.935h3.264v1.649h-3.264v.952h3.876zm3.383-5.389v7.327h-2.074v-2.771h-1.479v-1.938h1.479v-2.618h2.074zm1.156 7.327V19.42h2.159v7.395h-2.159zM28.172 39.42v14.688h-2.244V39.42h2.244zm-4.233 12.002v2.04h-8.466v-8.143h5.304v-3.604h-5.304v-2.057h7.565v7.718h-5.304v4.046h6.205zm7.997-2.924l-1.139-1.802c2.72-.816 4.947-2.499 5.865-4.964h-5.236v-2.074h12.631v2.074h-4.964a8.576 8.576 0 0 1-.476 1.309c1.479 1.581 3.672 2.686 6.086 3.23l-1.003 1.87c-2.346-.561-4.607-1.734-6.222-3.264-1.411 1.734-3.417 2.992-5.542 3.621zm12.835 2.975v2.074H30.712v-2.074h5.814v-3.74h2.38v3.74h5.865zm4.716-9.843v1.836h10.37v1.938h-10.37v1.955H60.01v1.972H47.226v-9.673h12.631v1.972h-10.37zm11.084 9.86v2.057H46.512V51.49h14.059z"/>
</svg>
