<svg xmlns="http://www.w3.org/2000/svg" width="73" height="73" viewBox="0 0 73 73">
    <g fill="none" fill-rule="nonzero">
        <path fill="#33A7D9" d="M20.743 1.266C25.37.422 30.38 0 35.771 0c5.946 0 11.55.513 16.813 1.538a24 24 0 0 1 18.978 19.03C72.52 25.557 73 30.87 73 36.5c0 5.672-.486 11.02-1.46 16.042a24 24 0 0 1-18.998 18.999C47.52 72.514 42.172 73 36.5 73c-5.672 0-11.02-.486-16.042-1.46A24 24 0 0 1 1.459 52.543C.486 47.52 0 42.172 0 36.5c0-5.754.5-11.173 1.502-16.26A24 24 0 0 1 20.743 1.266z"/>
        <path fill="#FFF" d="M28.255 31.422v2.04h-5.882v-8.143h3.06v-3.604h-3.06v-2.057h5.202v7.701h-3.06v4.063h3.74zm3.417-11.934v14.45h-2.193v-6.562h-1.411v-2.159h1.411v-5.729h2.193zm3.4 14.62h-2.21V19.42h2.21v14.688zm3.101-14.45h8.007v2.057h-3.06c-.034 1.377-.136 2.703-.34 3.961.816 2.38 2.346 4.743 4.25 6.443l-1.751 1.428c-1.326-1.275-2.465-2.907-3.315-4.573a17.095 17.095 0 0 1-2.431 4.692l-2.006-1.088c2.329-3.179 3.281-6.494 3.349-10.863h-2.703v-2.057zm10.455 7.446h-3.587v-2.108h3.587V19.42h2.244v14.688h-2.244v-7.004zM30.771 53.462h-8.398V39.658h7.565v2.057h-5.304v3.519h5.304v2.057h-5.304v4.131h6.137v2.04zm4.301-14.042v14.688h-2.244V39.42h2.244zm3.101 2.091v-1.853h6.069v1.309c0 .68-.068 1.36-.221 1.989h1.513v-3.468h2.091v8.551h-2.091v-3.111h-1.717v-1.275c-.748 2.261-2.465 4.029-4.981 4.879l-1.326-1.564c1.513-.425 2.669-1.224 3.434-2.227h-2.771V42.99h3.672c.136-.476.238-.969.255-1.479h-3.927zm10.54-2.091h2.159v9.214h-2.159V39.42zm2.584 12.784l-1.003 1.819c-1.989-.408-4.369-1.598-5.882-2.958-1.377 1.547-3.366 2.652-5.355 2.992l-1.207-1.785c2.788-.442 5.185-2.074 6.018-4.488l2.091.646a7.39 7.39 0 0 1-.425 1.003c1.445 1.377 3.689 2.414 5.763 2.771z"/>
    </g>
</svg>
