<svg xmlns="http://www.w3.org/2000/svg" width="73" height="74" viewBox="0 0 73 74">
    <path fill="#FFF" fill-rule="nonzero" d="M14.473 19.658h5.321v4.029c0 .459-.017.901-.051 1.343h1.717v-5.542h2.193v14.45H21.46v-6.851h-2.006c-.544 2.499-1.734 4.709-3.791 6.443l-1.853-1.275c2.788-2.261 3.757-5.202 3.757-8.347v-2.193h-3.094v-2.057zm12.699 14.45h-2.244V19.42h2.244v14.688zm16.599-2.635v2.074H29.712v-2.074h14.059zm-12.767-3.298l-1.377-1.751c3.349-1.19 5.644-3.808 6.222-7.089l2.346.391a9.007 9.007 0 0 1-.68 2.278c1.564 1.819 3.825 3.196 6.341 3.842l-1.224 1.819a13.544 13.544 0 0 1-6.222-3.706c-1.36 1.921-3.315 3.451-5.406 4.216zm17.483-6.545v1.836h10.37v1.938h-10.37v1.955H59.01v1.972H46.226v-9.673h12.631v1.972h-10.37zm11.084 9.86v2.057H45.512V31.49h14.059zM14.558 49.807v-1.836c0-2.431 1.632-3.842 3.91-3.842 2.261 0 3.91 1.411 3.91 3.842v1.836c0 2.431-1.649 3.808-3.91 3.808-2.278 0-3.91-1.377-3.91-3.808zm12.308-2.703v7.004h-2.261V39.42h2.261v5.525h1.904v2.159h-1.904zm-4.063-4.131H14.15v-2.04h3.128v-2.074h2.278v2.074h3.247v2.04zm-6.086 4.998v1.836c0 1.19.663 1.836 1.751 1.836 1.071 0 1.751-.646 1.751-1.836v-1.836c0-1.207-.68-1.853-1.751-1.853-1.088 0-1.751.646-1.751 1.853zm22.107-.935h-4.148c-2.771 0-4.556-1.479-4.556-3.808 0-2.312 1.785-3.808 4.556-3.808h4.148c2.754 0 4.556 1.496 4.556 3.808 0 2.329-1.802 3.808-4.556 3.808zm-4.131-2.057h4.08c1.445 0 2.278-.68 2.278-1.751 0-1.088-.833-1.751-2.278-1.751h-4.08c-1.428 0-2.244.663-2.244 1.751 0 1.071.816 1.751 2.244 1.751zm9.078 3.621v2.074H37.94v3.587h-2.397v-3.587h-5.831V48.6h14.059zm15.8 2.873v2.074H45.512v-2.074h14.059zm-12.767-3.298l-1.377-1.751c3.349-1.19 5.644-3.808 6.222-7.089l2.346.391a9.007 9.007 0 0 1-.68 2.278c1.564 1.819 3.825 3.196 6.341 3.842l-1.224 1.819a13.544 13.544 0 0 1-6.222-3.706c-1.36 1.921-3.315 3.451-5.406 4.216z"/>
</svg>
