<svg xmlns="http://www.w3.org/2000/svg" width="73" height="73" viewBox="0 0 73 73">
    <g fill="#FFF" fill-rule="evenodd">
        <path fill-rule="nonzero" d="M14.292 41.164v-4.828h2.261v2.771h10.285v2.057H14.292zm2.159-14.603h2.261c0 1.105-.119 2.176-.374 3.196.986 1.53 2.584 3.009 4.165 3.893l-1.343 1.683c-1.292-.748-2.635-1.955-3.638-3.196-.68 1.428-1.649 2.652-2.839 3.519L13 34.211c2.193-1.615 3.451-4.284 3.451-7.65zm7.82 2.822v-2.822h2.244v10.88h-2.244v-6.035h-3.366v-2.023h3.366zm5.498 8.84V36.2h12.24v5.202h-2.261v-3.179h-9.979zm5.287-8.789a8.462 8.462 0 0 1-.238 1.139c.969 1.275 2.533 2.397 4.063 2.975l-1.207 1.7c-1.292-.561-2.754-1.581-3.774-2.669-.85 1.343-2.091 2.448-3.417 3.077l-1.513-1.547c2.057-.935 3.502-2.686 3.842-4.675h-3.196v-1.921h3.162V26h2.278v1.513h3.111v1.921h-3.111zm4.692 6.035v-8.908h2.261v3.349h1.904v2.142h-1.904v3.417h-2.261zm6.093-2.465l-1.071-1.785c3.026-.527 5.338-2.312 6.188-4.743l2.312.391c-.153.425-.323.85-.544 1.241 1.581 1.377 3.893 2.482 6.273 2.89-.323.612-.646 1.207-.935 1.819-2.346-.408-4.811-1.598-6.494-3.026-1.462 1.666-3.519 2.856-5.729 3.213zm12.512 6.171v1.989H45.569v-4.386h2.261v2.397h10.523zm-5.27-1.105h-2.244v-2.38h-5.984v-1.955h14.059v1.955h-5.831v2.38zM34.5 52.857h-2.261v-1.7h-10.37v-2.04h10.37v-2.278h-10.37v-2.04H34.5v8.058zm.714.799v2.091h-5.831v3.655h-2.397v-3.655h-5.831v-2.091h14.059zm15.239 3.519v1.989H37.669v-3.876h2.261v1.887h10.523zM50.3 44.799v1.87H37.669v-1.87H50.3zm-8.228 4.59h3.383l.561-2.176h2.312c-.17.731-.357 1.428-.544 2.176h2.669v1.785h-5.389v1.343h5.95v1.938H36.955v-1.938h5.848v-1.343h-5.287v-1.785h2.295v-2.176h2.261v2.176z"/>
        <path d="M39.598 14.643l-.917.53-1.316-2.282.917-.53 1.316 2.282zm2.03-4.595l-1.072-1.855-3.51 2.027.615 1.066-.917.53-.616-1.066-6.154 3.553 1.071 1.855a1.648 1.648 0 0 1 1.647 2.853l1.071 1.856 6.155-3.554-.615-1.065.917-.53.615 1.066 3.511-2.027-1.071-1.856a1.648 1.648 0 0 1-1.647-2.853z"/>
    </g>
</svg>
