<svg xmlns="http://www.w3.org/2000/svg" width="73" height="73" viewBox="0 0 73 73">
    <path fill="#FFF" fill-rule="nonzero" d="M27.983 26.662h1.292v1.853h-7.14v-1.853h1.139v-4.471h1.955v4.471h.782c.119-1.479.238-2.975.374-4.471h1.972c-.119 1.496-.255 2.992-.374 4.471zm7.412 5.304v2.057H22.849v-4.624h2.261v2.567h10.285zM32.08 19.488v10.234h-2.057v-4.641h-1.241v-1.972h1.241v-3.621h2.057zm.884 10.557V19.42h2.108v10.625h-2.108zM29.02 19.658v1.904h-6.647v-1.904h6.647zm9.629 14.365V29.28h2.261v2.686h10.285v2.057H38.649zm2.159-14.603h2.261c0 1.122-.136 2.227-.374 3.264.986 1.53 2.584 3.026 4.165 3.91l-1.343 1.666c-1.292-.731-2.652-1.938-3.655-3.196-.68 1.445-1.632 2.652-2.822 3.536l-1.683-1.445c2.193-1.615 3.451-4.284 3.451-7.735zm7.82 1.343V19.42h2.244V30.3h-2.244v-4.947H45.5v-1.819h3.128v-.952H45.5v-1.819h3.128zM27.41 52.34v1.683H14.626v-3.995h10.37v-.663h-10.37v-1.649h5.117v-.782h-5.831v-1.683h14.059v1.683h-5.967v.782h5.253v3.978h-10.37v.646H27.41zm-.153-12.682v1.734H14.626v-1.734h12.631zm-8.228 3.264h3.57c.102-.408.204-.799.289-1.19h2.329c-.102.391-.204.782-.289 1.19h2.482v1.649H14.473v-1.649h2.295v-1.19h2.261v1.19zm19.098-3.264v6.8h-7.854v-6.8h2.159v1.649h3.553v-1.649h2.142zm-5.695 5.049h3.553v-1.649h-3.553v1.649zm10.863 7.701v1.7H30.749v-4.25h9.979v-.816h-9.979v-1.717h12.223v4.233H33.01v.85h10.285zm-.323-12.988v7.31h-2.244v-7.31h2.244zm11.499 12.002v2.04h-8.398v-8.143h5.219v-3.604h-5.219v-2.057h7.48v7.718h-5.219v4.046h6.137zm3.995-4.318v7.004h-2.261V39.42h2.261v5.525h1.904v2.159h-1.904z"/>
</svg>
