<svg xmlns="http://www.w3.org/2000/svg" width="73" height="73" viewBox="0 0 73 73">
    <g fill="none" fill-rule="nonzero">
        <path fill="#E55B81" d="M20.743 1.266C25.37.422 30.38 0 35.771 0c5.946 0 11.55.513 16.813 1.538a24 24 0 0 1 18.978 19.03C72.52 25.557 73 30.87 73 36.5c0 5.672-.486 11.02-1.46 16.042a24 24 0 0 1-18.998 18.999C47.52 72.514 42.172 73 36.5 73c-5.672 0-11.02-.486-16.042-1.46A24 24 0 0 1 1.459 52.543C.486 47.52 0 42.172 0 36.5c0-5.754.5-11.173 1.502-16.26A24 24 0 0 1 20.743 1.266z"/>
        <path fill="#FFF" d="M22.104 28.175l-1.377-1.751c3.349-1.19 5.644-3.808 6.222-7.089l2.346.391a9.007 9.007 0 0 1-.68 2.278c1.564 1.819 3.825 3.196 6.341 3.842l-1.224 1.819a13.544 13.544 0 0 1-6.222-3.706c-1.36 1.921-3.315 3.451-5.406 4.216zm12.767 3.298v2.074H20.812v-2.074h3.264v-3.468h2.244v3.468h3.043v-3.468h2.261v3.468h3.247zm2.302-9.979v-1.836h7.429v1.309c0 3.808-2.771 6.63-7.072 7.327l-1.02-1.649c1.904-.306 3.434-1.003 4.454-2.023h-3.791v-1.734h4.913c.153-.425.255-.901.289-1.394h-5.202zm10.455-2.074h2.244v8.347h-2.244V19.42zm-1.343 14.841h-5.032c-2.363 0-3.842-1.071-3.842-3.026 0-1.785 1.479-3.026 3.842-3.026h5.032c2.346 0 3.825 1.241 3.825 3.026 0 1.955-1.479 3.026-3.825 3.026zm-5.032-1.904h5.032c.901 0 1.513-.442 1.513-1.122 0-.663-.612-1.122-1.513-1.122h-5.032c-.935 0-1.53.459-1.53 1.122 0 .68.595 1.122 1.53 1.122zM20.812 47.274h14.059v1.802H20.812v-1.802zm13.498-2.499v1.7H21.526v-6.817h12.631v1.717h-10.37v.833h10.37v1.717h-10.37v.85H34.31zm-.153 9.486h-2.261v-2.55h-10.37v-1.802h12.631v4.352zm3.101-14.603h7.106v3.553c0 4.386-2.261 8.143-6.29 10.268l-1.547-1.632c3.587-1.751 5.576-4.828 5.576-8.33v-1.802h-4.845v-2.057zm12.308 7.446v7.004h-2.261V39.42h2.261v5.525h1.904v2.159h-1.904z"/>
    </g>
</svg>
