<svg xmlns="http://www.w3.org/2000/svg" width="22" height="22" viewBox="0 0 22 22">
    <g fill="none" fill-rule="evenodd">
        <path fill="#F2F2F2" d="M-592-724h1920V356H-592z"/>
        <path fill="#FFF" fill-rule="nonzero" d="M-16-9h768v91H-16z"/>
        <path fill="#414141" d="M15.436 13.287V8.942a4.58 4.58 0 0 0-9.15.014v4.336h-.65C4.04 13.28 2.75 12.21 2.75 10.697a2.786 2.786 0 0 1 2.327-2.655c.321-2.803 2.755-4.834 5.784-4.834 3.018 0 5.444 2.015 5.78 4.801a2.785 2.785 0 0 1 2.609 2.688c0 1.349-1.024 2.344-2.376 2.554-.107.42-.244.833-.414 1.234-.81 1.916-2.23 3.206-4.324 3.542a1.603 1.603 0 0 1-2.97-.84 1.604 1.604 0 0 1 3.096-.586c1.407-.335 2.345-1.264 2.933-2.652.09-.215.17-.437.24-.662z"/>
    </g>
</svg>
